STARTFONT 2.1
FONT -Bitstream-Terminal-Medium-R-Narrow--36-360-75-75-C-140-DEC-DECtech
SIZE 36 75 75
FONTBOUNDINGBOX 14 40 0 -10

STARTPROPERTIES 24
FOUNDRY "Bitstream"
FAMILY_NAME "Terminal"
WEIGHT_NAME "Medium"
SLANT "R"
SETWIDTH_NAME "Narrow"
ADD_STYLE_NAME ""
PIXEL_SIZE 36
POINT_SIZE 360
RESOLUTION_X 75
RESOLUTION_Y 75
SPACING "C"
AVERAGE_WIDTH 140
CHARSET_REGISTRY "DEC"
CHARSET_ENCODING "DECtech"
CAP_HEIGHT 22
COPYRIGHT "Copyright (c) 1991 Digital Equipment Corporation. All Rights Reserved."
_DEC_PRODUCTINFO "DECterm Fonts V2.2, 11-Nov-1991"
FULL_NAME "Terminal Narrow"
WEIGHT 10
X_HEIGHT -8
QUAD_WIDTH 14
DEFAULT_CHAR 159
FONT_DESCENT 10
FONT_ASCENT 30
ENDPROPERTIES

CHARS 182

STARTCHAR space
ENCODING 32
SWIDTH 360 0
DWIDTH 14 0
BBX 14 40 0 -10
BITMAP
0000
0000
0000
0000
0000
0000
0000
0000
0000
0000
0000
0000
0000
0000
0000
0000
0000
0000
0000
0000
0000
0000
0000
0000
0000
0000
0000
0000
0000
0000
0000
0000
0000
0000
0000
0000
0000
0000
0000
0000
ENDCHAR

STARTCHAR exclam
ENCODING 33
SWIDTH 360 0
DWIDTH 14 0
BBX 14 40 0 -10
BITMAP
0000
0000
0000
0000
0000
0000
0000
0000
0300
0300
0300
0300
0300
0300
0300
0300
0300
0300
0300
0300
0300
0300
0000
0000
0000
0000
0700
0F80
0F80
0700
0000
0000
0000
0000
0000
0000
0000
0000
0000
0000
ENDCHAR

STARTCHAR quotedbl
ENCODING 34
SWIDTH 360 0
DWIDTH 14 0
BBX 14 40 0 -10
BITMAP
0000
0000
0000
0000
0000
0000
0000
0000
0CC0
0CC0
0CC0
0CC0
0CC0
0CC0
0CC0
0CC0
0000
0000
0000
0000
0000
0000
0000
0000
0000
0000
0000
0000
0000
0000
0000
0000
0000
0000
0000
0000
0000
0000
0000
0000
ENDCHAR

STARTCHAR numbersign
ENCODING 35
SWIDTH 360 0
DWIDTH 14 0
BBX 14 40 0 -10
BITMAP
0000
0000
0000
0000
0000
0000
0000
0000
0CC0
0CC0
0CC0
0CC0
0CC0
0CC0
0CC0
0CC0
0CC0
7FF8
7FF8
0CC0
0CC0
0CC0
0CC0
7FF8
7FF8
0CC0
0CC0
0CC0
0CC0
0CC0
0CC0
0CC0
0CC0
0CC0
0000
0000
0000
0000
0000
0000
ENDCHAR

STARTCHAR dollar
ENCODING 36
SWIDTH 360 0
DWIDTH 14 0
BBX 14 40 0 -10
BITMAP
0000
0000
0000
0000
0000
0000
0300
0300
0300
0300
07B0
1FF0
1870
3030
3030
3030
3000
3800
1C00
1F80
07E0
00E0
0070
0030
3030
3030
3030
3870
3FE0
37C0
0300
0300
0300
0300
0300
0300
0000
0000
0000
0000
ENDCHAR

STARTCHAR percent
ENCODING 37
SWIDTH 360 0
DWIDTH 14 0
BBX 14 40 0 -10
BITMAP
0000
0000
0000
0000
0000
0000
0000
0000
3C00
7E00
C300
C300
C300
C300
C300
7E08
3C38
00F0
03C0
0F00
3C00
70F0
41F8
030C
030C
030C
030C
030C
01F8
00F0
0000
0000
0000
0000
0000
0000
0000
0000
0000
0000
ENDCHAR

STARTCHAR ampersand
ENCODING 38
SWIDTH 360 0
DWIDTH 14 0
BBX 14 40 0 -10
BITMAP
0000
0000
0000
0000
0000
0000
0000
0000
0740
07C0
0CC0
0CC0
0C00
0C00
0C00
0C00
0600
0600
0E30
1E30
3320
3320
31A0
31A0
30E0
30C0
30E0
39E0
1FB0
0F30
0000
0000
0000
0000
0000
0000
0000
0000
0000
0000
ENDCHAR

STARTCHAR quoteright
ENCODING 39
SWIDTH 360 0
DWIDTH 14 0
BBX 14 40 0 -10
BITMAP
0000
0000
03C0
03C0
0780
0700
0E00
0E00
1C00
1800
0000
0000
0000
0000
0000
0000
0000
0000
0000
0000
0000
0000
0000
0000
0000
0000
0000
0000
0000
0000
0000
0000
0000
0000
0000
0000
0000
0000
0000
0000
ENDCHAR

STARTCHAR parenleft
ENCODING 40
SWIDTH 360 0
DWIDTH 14 0
BBX 14 40 0 -10
BITMAP
0000
0000
0000
00C0
00C0
0180
0180
0300
0300
0600
0600
0600
0600
0C00
0C00
0C00
0C00
0C00
0C00
0C00
0C00
0C00
0C00
0C00
0C00
0600
0600
0600
0600
0300
0300
0180
0180
00C0
00C0
0000
0000
0000
0000
0000
ENDCHAR

STARTCHAR parenright
ENCODING 41
SWIDTH 360 0
DWIDTH 14 0
BBX 14 40 0 -10
BITMAP
0000
0000
0000
0C00
0C00
0600
0600
0300
0300
0180
0180
0180
0180
00C0
00C0
00C0
00C0
00C0
00C0
00C0
00C0
00C0
00C0
00C0
00C0
0180
0180
0180
0180
0300
0300
0600
0600
0C00
0C00
0000
0000
0000
0000
0000
ENDCHAR

STARTCHAR asterisk
ENCODING 42
SWIDTH 360 0
DWIDTH 14 0
BBX 14 40 0 -10
BITMAP
0000
0000
0000
0000
0000
0000
0000
0000
0000
0000
0000
0000
0000
0300
0300
0300
3330
3FF0
1FE0
0780
0FC0
1CE0
3870
3030
0000
0000
0000
0000
0000
0000
0000
0000
0000
0000
0000
0000
0000
0000
0000
0000
ENDCHAR

STARTCHAR plus
ENCODING 43
SWIDTH 360 0
DWIDTH 14 0
BBX 14 40 0 -10
BITMAP
0000
0000
0000
0000
0000
0000
0000
0000
0000
0000
0000
0000
0300
0300
0300
0300
0300
0300
3FF0
3FF0
0300
0300
0300
0300
0300
0300
0000
0000
0000
0000
0000
0000
0000
0000
0000
0000
0000
0000
0000
0000
ENDCHAR

STARTCHAR comma
ENCODING 44
SWIDTH 360 0
DWIDTH 14 0
BBX 14 40 0 -10
BITMAP
0000
0000
0000
0000
0000
0000
0000
0000
0000
0000
0000
0000
0000
0000
0000
0000
0000
0000
0000
0000
0000
0000
0000
0000
0000
0000
03C0
0380
0700
0700
0E00
0C00
1C00
1800
0000
0000
0000
0000
0000
0000
ENDCHAR

STARTCHAR minus
ENCODING 45
SWIDTH 360 0
DWIDTH 14 0
BBX 14 40 0 -10
BITMAP
0000
0000
0000
0000
0000
0000
0000
0000
0000
0000
0000
0000
0000
0000
0000
0000
0000
0000
3FF0
3FF0
0000
0000
0000
0000
0000
0000
0000
0000
0000
0000
0000
0000
0000
0000
0000
0000
0000
0000
0000
0000
ENDCHAR

STARTCHAR period
ENCODING 46
SWIDTH 360 0
DWIDTH 14 0
BBX 14 40 0 -10
BITMAP
0000
0000
0000
0000
0000
0000
0000
0000
0000
0000
0000
0000
0000
0000
0000
0000
0000
0000
0000
0000
0000
0000
0000
0000
0000
0000
0700
0F80
0F80
0700
0000
0000
0000
0000
0000
0000
0000
0000
0000
0000
ENDCHAR

STARTCHAR slash
ENCODING 47
SWIDTH 360 0
DWIDTH 14 0
BBX 14 40 0 -10
BITMAP
0000
0000
0000
0000
0000
0030
0030
0030
0060
0060
0060
0060
00C0
00C0
00C0
0180
0180
0180
0180
0300
0300
0300
0600
0600
0600
0C00
0C00
0C00
0C00
1800
1800
1800
0000
0000
0000
0000
0000
0000
0000
0000
ENDCHAR

STARTCHAR zero
ENCODING 48
SWIDTH 360 0
DWIDTH 14 0
BBX 14 40 0 -10
BITMAP
0000
0000
0000
0000
0000
0000
0000
0000
0700
0F80
18C0
18C0
3060
3060
3060
3060
3060
3060
3060
3060
3060
3060
3060
3060
3060
3060
18C0
18C0
0F80
0700
0000
0000
0000
0000
0000
0000
0000
0000
0000
0000
ENDCHAR

STARTCHAR one
ENCODING 49
SWIDTH 360 0
DWIDTH 14 0
BBX 14 40 0 -10
BITMAP
0000
0000
0000
0000
0000
0000
0000
0000
0300
0F00
1F00
3B00
3300
0300
0300
0300
0300
0300
0300
0300
0300
0300
0300
0300
0300
0300
0300
0300
1FE0
1FE0
0000
0000
0000
0000
0000
0000
0000
0000
0000
0000
ENDCHAR

STARTCHAR two
ENCODING 50
SWIDTH 360 0
DWIDTH 14 0
BBX 14 40 0 -10
BITMAP
0000
0000
0000
0000
0000
0000
0000
0000
0780
1FC0
18E0
3060
3060
3060
0060
0060
00C0
00C0
0180
0180
0300
0300
0600
0600
0C00
0C00
1860
3860
3FE0
3FE0
0000
0000
0000
0000
0000
0000
0000
0000
0000
0000
ENDCHAR

STARTCHAR three
ENCODING 51
SWIDTH 360 0
DWIDTH 14 0
BBX 14 40 0 -10
BITMAP
0000
0000
0000
0000
0000
0000
0000
0000
0F80
1FC0
30C0
3060
0060
0060
0060
0060
00C0
07C0
0780
00C0
0060
0060
0060
0060
0060
0060
3060
38C0
1FC0
0780
0000
0000
0000
0000
0000
0000
0000
0000
0000
0000
ENDCHAR

STARTCHAR four
ENCODING 52
SWIDTH 360 0
DWIDTH 14 0
BBX 14 40 0 -10
BITMAP
0000
0000
0000
0000
0000
0000
0000
0000
0180
0180
0380
0380
0780
0780
0D80
0D80
1980
1980
1180
3180
3180
6180
7FE0
7FE0
0180
0180
0180
0180
0180
0180
0000
0000
0000
0000
0000
0000
0000
0000
0000
0000
ENDCHAR

STARTCHAR five
ENCODING 53
SWIDTH 360 0
DWIDTH 14 0
BBX 14 40 0 -10
BITMAP
0000
0000
0000
0000
0000
0000
0000
0000
3FE0
3FE0
3000
3000
3000
3000
3000
3700
3FC0
38C0
3060
0060
0060
0060
0060
0060
0060
0060
3060
38C0
1FC0
0700
0000
0000
0000
0000
0000
0000
0000
0000
0000
0000
ENDCHAR

STARTCHAR six
ENCODING 54
SWIDTH 360 0
DWIDTH 14 0
BBX 14 40 0 -10
BITMAP
0000
0000
0000
0000
0000
0000
0000
0000
01C0
07C0
0E00
0C00
1800
1800
1800
3000
3000
3780
3FC0
38C0
3060
3060
3060
3060
3060
3060
3060
18C0
1FC0
0F80
0000
0000
0000
0000
0000
0000
0000
0000
0000
0000
ENDCHAR

STARTCHAR seven
ENCODING 55
SWIDTH 360 0
DWIDTH 14 0
BBX 14 40 0 -10
BITMAP
0000
0000
0000
0000
0000
0000
0000
0000
1FF0
1FF0
1830
1830
0060
0060
0060
00C0
00C0
00C0
0180
0180
0180
0300
0300
0300
0600
0600
0600
0C00
0C00
0C00
0000
0000
0000
0000
0000
0000
0000
0000
0000
0000
ENDCHAR

STARTCHAR eight
ENCODING 56
SWIDTH 360 0
DWIDTH 14 0
BBX 14 40 0 -10
BITMAP
0000
0000
0000
0000
0000
0000
0000
0000
0700
1FC0
18C0
3060
3060
3060
3060
3060
18C0
0F80
0F80
18C0
1840
3060
3060
3060
3060
3060
3060
18C0
1FC0
0700
0000
0000
0000
0000
0000
0000
0000
0000
0000
0000
ENDCHAR

STARTCHAR nine
ENCODING 57
SWIDTH 360 0
DWIDTH 14 0
BBX 14 40 0 -10
BITMAP
0000
0000
0000
0000
0000
0000
0000
0000
0F80
1FC0
18C0
3060
3060
3060
3060
3060
3060
3060
18E0
1FE0
0F60
0060
0060
00C0
00C0
00C0
0180
0380
1F00
1E00
0000
0000
0000
0000
0000
0000
0000
0000
0000
0000
ENDCHAR

STARTCHAR colon
ENCODING 58
SWIDTH 360 0
DWIDTH 14 0
BBX 14 40 0 -10
BITMAP
0000
0000
0000
0000
0000
0000
0000
0000
0000
0000
0000
0000
0000
0000
0700
0F80
0F80
0700
0000
0000
0000
0000
0000
0000
0000
0000
0700
0F80
0F80
0700
0000
0000
0000
0000
0000
0000
0000
0000
0000
0000
ENDCHAR

STARTCHAR semicolon
ENCODING 59
SWIDTH 360 0
DWIDTH 14 0
BBX 14 40 0 -10
BITMAP
0000
0000
0000
0000
0000
0000
0000
0000
0000
0000
0000
0000
0000
0000
0380
07C0
07C0
0380
0000
0000
0000
0000
0000
0000
0000
0000
03C0
0380
0700
0700
0E00
0C00
1C00
1800
0000
0000
0000
0000
0000
0000
ENDCHAR

STARTCHAR less
ENCODING 60
SWIDTH 360 0
DWIDTH 14 0
BBX 14 40 0 -10
BITMAP
0000
0000
0000
0000
0000
0000
0000
0000
0000
0000
0000
0000
0000
0018
0078
01E0
0780
1E00
7800
E000
7800
1E00
0780
01E0
0078
0018
0000
0000
0000
0000
0000
0000
0000
0000
0000
0000
0000
0000
0000
0000
ENDCHAR

STARTCHAR equal
ENCODING 61
SWIDTH 360 0
DWIDTH 14 0
BBX 14 40 0 -10
BITMAP
0000
0000
0000
0000
0000
0000
0000
0000
0000
0000
0000
0000
0000
0000
0000
3FF0
3FF0
0000
0000
0000
0000
3FF0
3FF0
0000
0000
0000
0000
0000
0000
0000
0000
0000
0000
0000
0000
0000
0000
0000
0000
0000
ENDCHAR

STARTCHAR greater
ENCODING 62
SWIDTH 360 0
DWIDTH 14 0
BBX 14 40 0 -10
BITMAP
0000
0000
0000
0000
0000
0000
0000
0000
0000
0000
0000
0000
0000
6000
7800
1E00
0780
01E0
0078
001C
0078
01E0
0780
1E00
7800
6000
0000
0000
0000
0000
0000
0000
0000
0000
0000
0000
0000
0000
0000
0000
ENDCHAR

STARTCHAR question
ENCODING 63
SWIDTH 360 0
DWIDTH 14 0
BBX 14 40 0 -10
BITMAP
0000
0000
0000
0000
0000
0000
0000
0000
0FC0
1FE0
3070
3030
3030
3030
0060
00E0
0180
0180
0300
0300
0300
0300
0000
0000
0000
0000
0700
0F80
0F80
0700
0000
0000
0000
0000
0000
0000
0000
0000
0000
0000
ENDCHAR

STARTCHAR at
ENCODING 64
SWIDTH 360 0
DWIDTH 14 0
BBX 14 40 0 -10
BITMAP
0000
0000
0000
0000
0000
0000
0F80
3FC0
3060
6060
6060
6060
6060
6060
61E0
63E0
6660
6660
6660
6660
6660
6660
6660
6660
67F8
63F8
6000
6000
6000
7000
3018
3838
1FF0
0FE0
0000
0000
0000
0000
0000
0000
ENDCHAR

STARTCHAR A
ENCODING 65
SWIDTH 360 0
DWIDTH 14 0
BBX 14 40 0 -10
BITMAP
0000
0000
0000
0000
0000
0000
0000
0000
0780
0780
0780
0480
0CC0
0CC0
0CC0
0CC0
0CC0
0CC0
1860
1860
1860
1860
1FE0
1FE0
3030
3030
3030
3030
FCFC
FCFC
0000
0000
0000
0000
0000
0000
0000
0000
0000
0000
ENDCHAR

STARTCHAR B
ENCODING 66
SWIDTH 360 0
DWIDTH 14 0
BBX 14 40 0 -10
BITMAP
0000
0000
0000
0000
0000
0000
0000
0000
7FE0
7FF0
1838
1818
1818
1818
1818
1818
1818
1830
1FE0
1FF0
1838
1818
1818
1818
1818
1818
1818
1838
7FF0
7FE0
0000
0000
0000
0000
0000
0000
0000
0000
0000
0000
ENDCHAR

STARTCHAR C
ENCODING 67
SWIDTH 360 0
DWIDTH 14 0
BBX 14 40 0 -10
BITMAP
0000
0000
0000
0000
0000
0000
0000
0000
0730
1FB0
18F0
3070
3030
3030
3000
3000
3000
3000
3000
3000
3000
3000
3000
3000
3000
3000
3030
1860
1FE0
0780
0000
0000
0000
0000
0000
0000
0000
0000
0000
0000
ENDCHAR

STARTCHAR D
ENCODING 68
SWIDTH 360 0
DWIDTH 14 0
BBX 14 40 0 -10
BITMAP
0000
0000
0000
0000
0000
0000
0000
0000
7FC0
7FF0
1830
1818
1818
1818
1818
1818
1818
1818
1818
1818
1818
1818
1818
1818
1818
1818
1818
1830
7FF0
7FC0
0000
0000
0000
0000
0000
0000
0000
0000
0000
0000
ENDCHAR

STARTCHAR E
ENCODING 69
SWIDTH 360 0
DWIDTH 14 0
BBX 14 40 0 -10
BITMAP
0000
0000
0000
0000
0000
0000
0000
0000
7FF8
7FF8
1818
1818
1818
1818
1800
1800
1860
1860
1FE0
1FE0
1860
1860
1800
1800
1818
1818
1818
1818
7FF8
7FF8
0000
0000
0000
0000
0000
0000
0000
0000
0000
0000
ENDCHAR

STARTCHAR F
ENCODING 70
SWIDTH 360 0
DWIDTH 14 0
BBX 14 40 0 -10
BITMAP
0000
0000
0000
0000
0000
0000
0000
0000
7FF8
7FF8
1818
1818
1818
1818
1800
1800
1860
1860
1FE0
1FE0
1860
1860
1800
1800
1800
1800
1800
1800
7E00
7E00
0000
0000
0000
0000
0000
0000
0000
0000
0000
0000
ENDCHAR

STARTCHAR G
ENCODING 71
SWIDTH 360 0
DWIDTH 14 0
BBX 14 40 0 -10
BITMAP
0000
0000
0000
0000
0000
0000
0000
0000
0E60
3F60
31E0
60E0
6060
6060
6000
6000
6000
6000
6000
6000
61F8
61F8
6060
6060
6060
6060
6060
3060
3FE0
0F80
0000
0000
0000
0000
0000
0000
0000
0000
0000
0000
ENDCHAR

STARTCHAR H
ENCODING 72
SWIDTH 360 0
DWIDTH 14 0
BBX 14 40 0 -10
BITMAP
0000
0000
0000
0000
0000
0000
0000
0000
FCFC
FCFC
3030
3030
3030
3030
3030
3030
3030
3030
3FF0
3FF0
3030
3030
3030
3030
3030
3030
3030
3030
FCFC
FCFC
0000
0000
0000
0000
0000
0000
0000
0000
0000
0000
ENDCHAR

STARTCHAR I
ENCODING 73
SWIDTH 360 0
DWIDTH 14 0
BBX 14 40 0 -10
BITMAP
0000
0000
0000
0000
0000
0000
0000
0000
3FF0
3FF0
0300
0300
0300
0300
0300
0300
0300
0300
0300
0300
0300
0300
0300
0300
0300
0300
0300
0300
3FF0
3FF0
0000
0000
0000
0000
0000
0000
0000
0000
0000
0000
ENDCHAR

STARTCHAR J
ENCODING 74
SWIDTH 360 0
DWIDTH 14 0
BBX 14 40 0 -10
BITMAP
0000
0000
0000
0000
0000
0000
0000
0000
07F8
07F8
0060
0060
0060
0060
0060
0060
0060
0060
0060
0060
6060
6060
6060
6060
6060
6060
6060
70E0
3FC0
1F80
0000
0000
0000
0000
0000
0000
0000
0000
0000
0000
ENDCHAR

STARTCHAR K
ENCODING 75
SWIDTH 360 0
DWIDTH 14 0
BBX 14 40 0 -10
BITMAP
0000
0000
0000
0000
0000
0000
0000
0000
FC3C
FC3C
3060
3060
30C0
30C0
3180
3180
3300
3300
3780
3580
3D80
38C0
30C0
30C0
3060
3060
3060
3030
FC3C
FC3C
0000
0000
0000
0000
0000
0000
0000
0000
0000
0000
ENDCHAR

STARTCHAR L
ENCODING 76
SWIDTH 360 0
DWIDTH 14 0
BBX 14 40 0 -10
BITMAP
0000
0000
0000
0000
0000
0000
0000
0000
7E00
7E00
1800
1800
1800
1800
1800
1800
1800
1800
1800
1800
1800
1800
1800
1800
1818
1818
1818
1818
7FF8
7FF8
0000
0000
0000
0000
0000
0000
0000
0000
0000
0000
ENDCHAR

STARTCHAR M
ENCODING 77
SWIDTH 360 0
DWIDTH 14 0
BBX 14 40 0 -10
BITMAP
0000
0000
0000
0000
0000
0000
0000
0000
F03C
F03C
3030
3030
3870
3870
3870
3870
3CF0
34B0
34B0
34B0
37B0
3330
3330
3330
3030
3030
3030
3030
FCFC
FCFC
0000
0000
0000
0000
0000
0000
0000
0000
0000
0000
ENDCHAR

STARTCHAR N
ENCODING 78
SWIDTH 360 0
DWIDTH 14 0
BBX 14 40 0 -10
BITMAP
0000
0000
0000
0000
0000
0000
0000
0000
F8FC
F8FC
3830
3C30
3C30
3430
3630
3630
3230
3330
3330
3130
31B0
31B0
30B0
30F0
30F0
3070
3070
3070
FC30
FC30
0000
0000
0000
0000
0000
0000
0000
0000
0000
0000
ENDCHAR

STARTCHAR O
ENCODING 79
SWIDTH 360 0
DWIDTH 14 0
BBX 14 40 0 -10
BITMAP
0000
0000
0000
0000
0000
0000
0000
0000
0780
1FE0
1860
3870
3030
3030
3030
3030
3030
3030
3030
3030
3030
3030
3030
3030
3030
3030
3870
1860
1FE0
0780
0000
0000
0000
0000
0000
0000
0000
0000
0000
0000
ENDCHAR

STARTCHAR P
ENCODING 80
SWIDTH 360 0
DWIDTH 14 0
BBX 14 40 0 -10
BITMAP
0000
0000
0000
0000
0000
0000
0000
0000
7FC0
7FF0
1830
1818
1818
1818
1818
1818
1818
1818
1818
1830
1FF0
1FE0
1800
1800
1800
1800
1800
1800
7E00
7E00
0000
0000
0000
0000
0000
0000
0000
0000
0000
0000
ENDCHAR

STARTCHAR Q
ENCODING 81
SWIDTH 360 0
DWIDTH 14 0
BBX 14 40 0 -10
BITMAP
0000
0000
0000
0000
0000
0000
0000
0000
0780
1FE0
1860
3030
3030
3030
3030
3030
3030
3030
3030
3030
3030
3030
3030
3030
3030
3030
3030
1860
1FE0
0780
0400
0C00
0E30
1FB0
31E0
30C0
0000
0000
0000
0000
ENDCHAR

STARTCHAR R
ENCODING 82
SWIDTH 360 0
DWIDTH 14 0
BBX 14 40 0 -10
BITMAP
0000
0000
0000
0000
0000
0000
0000
0000
FFC0
FFE0
3060
3030
3030
3030
3030
3030
3030
3060
3FE0
3FC0
30C0
30C0
3060
3060
3060
3030
3030
3030
FC1C
FC1C
0000
0000
0000
0000
0000
0000
0000
0000
0000
0000
ENDCHAR

STARTCHAR S
ENCODING 83
SWIDTH 360 0
DWIDTH 14 0
BBX 14 40 0 -10
BITMAP
0000
0000
0000
0000
0000
0000
0000
0000
07B0
1FF0
1870
3030
3030
3030
3000
3000
3800
1E00
0FC0
03E0
0070
0030
0030
0030
3030
3030
3030
3870
3FE0
37C0
0000
0000
0000
0000
0000
0000
0000
0000
0000
0000
ENDCHAR

STARTCHAR T
ENCODING 84
SWIDTH 360 0
DWIDTH 14 0
BBX 14 40 0 -10
BITMAP
0000
0000
0000
0000
0000
0000
0000
0000
7FF8
7FF8
6318
6318
6318
6318
6318
0300
0300
0300
0300
0300
0300
0300
0300
0300
0300
0300
0300
0300
0FC0
0FC0
0000
0000
0000
0000
0000
0000
0000
0000
0000
0000
ENDCHAR

STARTCHAR U
ENCODING 85
SWIDTH 360 0
DWIDTH 14 0
BBX 14 40 0 -10
BITMAP
0000
0000
0000
0000
0000
0000
0000
0000
FCFC
FCFC
3030
3030
3030
3030
3030
3030
3030
3030
3030
3030
3030
3030
3030
3030
3030
3030
3030
1860
1FE0
0780
0000
0000
0000
0000
0000
0000
0000
0000
0000
0000
ENDCHAR

STARTCHAR V
ENCODING 86
SWIDTH 360 0
DWIDTH 14 0
BBX 14 40 0 -10
BITMAP
0000
0000
0000
0000
0000
0000
0000
0000
FCFC
FCFC
3030
3030
3030
3030
1860
1860
1860
1860
1860
1860
0CC0
0CC0
0CC0
0CC0
0CC0
0480
0780
0780
0300
0300
0000
0000
0000
0000
0000
0000
0000
0000
0000
0000
ENDCHAR

STARTCHAR W
ENCODING 87
SWIDTH 360 0
DWIDTH 14 0
BBX 14 40 0 -10
BITMAP
0000
0000
0000
0000
0000
0000
0000
0000
F03C
F03C
C00C
C00C
C30C
C30C
C30C
C30C
C78C
C78C
6498
6498
6CD8
6CD8
6858
6858
7878
7878
3030
3030
3030
3030
0000
0000
0000
0000
0000
0000
0000
0000
0000
0000
ENDCHAR

STARTCHAR X
ENCODING 88
SWIDTH 360 0
DWIDTH 14 0
BBX 14 40 0 -10
BITMAP
0000
0000
0000
0000
0000
0000
0000
0000
F03C
F03C
3030
3030
1860
1860
0CC0
0CC0
0780
0780
0300
0300
0780
0780
0CC0
0CC0
1860
1860
3030
3030
F03C
F03C
0000
0000
0000
0000
0000
0000
0000
0000
0000
0000
ENDCHAR

STARTCHAR Y
ENCODING 89
SWIDTH 360 0
DWIDTH 14 0
BBX 14 40 0 -10
BITMAP
0000
0000
0000
0000
0000
0000
0000
0000
FCFC
FCFC
3030
3030
1860
1860
1860
0CC0
0CC0
0CC0
0CC0
0780
0780
0780
0300
0300
0300
0300
0300
0300
0FC0
0FC0
0000
0000
0000
0000
0000
0000
0000
0000
0000
0000
ENDCHAR

STARTCHAR Z
ENCODING 90
SWIDTH 360 0
DWIDTH 14 0
BBX 14 40 0 -10
BITMAP
0000
0000
0000
0000
0000
0000
0000
0000
3FF0
3FF0
3030
3030
3060
3060
00C0
00C0
0180
0180
0300
0300
0600
0600
0C00
0C00
1830
1830
3030
3030
3FF0
3FF0
0000
0000
0000
0000
0000
0000
0000
0000
0000
0000
ENDCHAR

STARTCHAR bracketleft
ENCODING 91
SWIDTH 360 0
DWIDTH 14 0
BBX 14 40 0 -10
BITMAP
0000
0000
0000
07E0
07E0
0600
0600
0600
0600
0600
0600
0600
0600
0600
0600
0600
0600
0600
0600
0600
0600
0600
0600
0600
0600
0600
0600
0600
0600
0600
0600
0600
0600
07E0
07E0
0000
0000
0000
0000
0000
ENDCHAR

STARTCHAR backslash
ENCODING 92
SWIDTH 360 0
DWIDTH 14 0
BBX 14 40 0 -10
BITMAP
0000
0000
0000
0000
0000
3000
3000
3000
1800
1800
1800
1800
0C00
0C00
0C00
0600
0600
0600
0600
0300
0300
0300
0180
0180
0180
00C0
00C0
00C0
00C0
0060
0060
0060
0000
0000
0000
0000
0000
0000
0000
0000
ENDCHAR

STARTCHAR bracketright
ENCODING 93
SWIDTH 360 0
DWIDTH 14 0
BBX 14 40 0 -10
BITMAP
0000
0000
0000
1F80
1F80
0180
0180
0180
0180
0180
0180
0180
0180
0180
0180
0180
0180
0180
0180
0180
0180
0180
0180
0180
0180
0180
0180
0180
0180
0180
0180
0180
0180
1F80
1F80
0000
0000
0000
0000
0000
ENDCHAR

STARTCHAR asciicircum
ENCODING 94
SWIDTH 360 0
DWIDTH 14 0
BBX 14 40 0 -10
BITMAP
0000
0000
0000
0000
0000
0000
0000
0000
0000
0000
0000
0000
0200
0700
0F80
1DC0
38E0
7070
0000
0000
0000
0000
0000
0000
0000
0000
0000
0000
0000
0000
0000
0000
0000
0000
0000
0000
0000
0000
0000
0000
ENDCHAR

STARTCHAR ldblank
ENCODING 95
SWIDTH 360 0
DWIDTH 14 0
BBX 14 40 0 -10
BITMAP
0000
0000
0000
0000
0000
0000
0000
0000
0000
0000
0000
0000
0000
0000
0000
0000
0000
0000
0000
0000
0000
0000
0000
0000
0000
0000
0000
0000
0000
0000
0000
0000
0000
0000
0000
0000
0000
0000
0000
0000
ENDCHAR

STARTCHAR diamond
ENCODING 96
SWIDTH 360 0
DWIDTH 14 0
BBX 14 40 0 -10
BITMAP
0000
0000
0000
0000
0000
0000
0000
0000
0300
0300
0780
0780
0FC0
0FC0
1FE0
1FE0
3FF0
3FF0
7FF8
7FF8
3FF0
3FF0
1FE0
1FE0
0FC0
0FC0
0780
0780
0300
0300
0000
0000
0000
0000
0000
0000
0000
0000
0000
0000
ENDCHAR

STARTCHAR checkerboard
ENCODING 97
SWIDTH 360 0
DWIDTH 14 0
BBX 14 40 0 -10
BITMAP
AAA8
5554
AAA8
5554
AAA8
5554
AAA8
5554
AAA8
5554
AAA8
5554
AAA8
5554
AAA8
5554
AAA8
5554
AAA8
5554
AAA8
5554
AAA8
5554
AAA8
5554
AAA8
5554
AAA8
5554
AAA8
5554
AAA8
5554
AAA8
5554
AAA8
5554
AAA8
5554
ENDCHAR

STARTCHAR HT
ENCODING 98
SWIDTH 360 0
DWIDTH 14 0
BBX 14 40 0 -10
BITMAP
0000
0000
0000
0000
0000
0000
6600
6600
6600
6600
7E00
7E00
6600
6600
6600
6600
6600
6600
0000
0000
01F8
01F8
0060
0060
0060
0060
0060
0060
0060
0060
0060
0060
0000
0000
0000
0000
0000
0000
0000
0000
ENDCHAR

STARTCHAR FF
ENCODING 99
SWIDTH 360 0
DWIDTH 14 0
BBX 14 40 0 -10
BITMAP
0000
0000
0000
0000
0000
0000
7E00
7E00
6000
6000
7E00
7E00
6000
6000
6000
6000
6000
6000
0000
0000
01F8
01F8
0180
0180
01F8
01F8
0180
0180
0180
0180
0180
0180
0000
0000
0000
0000
0000
0000
0000
0000
ENDCHAR

STARTCHAR CR
ENCODING 100
SWIDTH 360 0
DWIDTH 14 0
BBX 14 40 0 -10
BITMAP
0000
0000
0000
0000
0000
0000
1E00
3F00
6180
6180
6000
6000
6000
6000
6180
6180
3F00
1E00
0000
0000
01F0
01F8
0198
0198
0198
0198
01F0
01F0
0198
0198
0198
0198
0000
0000
0000
0000
0000
0000
0000
0000
ENDCHAR

STARTCHAR LF
ENCODING 101
SWIDTH 360 0
DWIDTH 14 0
BBX 14 40 0 -10
BITMAP
0000
0000
0000
0000
0000
0000
6000
6000
6000
6000
6000
6000
6000
6000
6000
6000
7E00
7E00
0000
0000
01F8
01F8
0180
0180
01F8
01F8
0180
0180
0180
0180
0180
0180
0000
0000
0000
0000
0000
0000
0000
0000
ENDCHAR

STARTCHAR degree
ENCODING 102
SWIDTH 360 0
DWIDTH 14 0
BBX 14 40 0 -10
BITMAP
0000
0000
0000
0000
0000
0000
0000
0780
1FE0
1860
3030
3030
3030
1860
1FE0
0780
0000
0000
0000
0000
0000
0000
0000
0000
0000
0000
0000
0000
0000
0000
0000
0000
0000
0000
0000
0000
0000
0000
0000
0000
ENDCHAR

STARTCHAR plusminus
ENCODING 103
SWIDTH 360 0
DWIDTH 14 0
BBX 14 40 0 -10
BITMAP
0000
0000
0000
0000
0000
0000
0000
0000
0000
0000
0300
0300
0300
0300
0300
0300
3FF0
3FF0
0300
0300
0300
0300
0300
0300
0000
0000
0000
0000
3FF0
3FF0
0000
0000
0000
0000
0000
0000
0000
0000
0000
0000
ENDCHAR

STARTCHAR NL
ENCODING 104
SWIDTH 360 0
DWIDTH 14 0
BBX 14 40 0 -10
BITMAP
0000
0000
0000
0000
0000
0000
6180
6180
7180
7180
7980
6980
6D80
6580
6780
6380
6380
6180
0000
0000
00C0
00C0
00C0
00C0
00C0
00C0
00C0
00C0
00C0
00C0
00FC
00FC
0000
0000
0000
0000
0000
0000
0000
0000
ENDCHAR

STARTCHAR VT
ENCODING 105
SWIDTH 360 0
DWIDTH 14 0
BBX 14 40 0 -10
BITMAP
0000
0000
0000
0000
0000
0000
6600
6600
6600
6600
6600
6600
6600
6600
2400
3C00
1800
1800
0000
0000
01F8
01F8
0060
0060
0060
0060
0060
0060
0060
0060
0060
0060
0000
0000
0000
0000
0000
0000
0000
0000
ENDCHAR

STARTCHAR ldcornsqlr
ENCODING 106
SWIDTH 360 0
DWIDTH 14 0
BBX 14 40 0 -10
BITMAP
0300
0300
0300
0300
0300
0300
0300
0300
0300
0300
0300
0300
0300
0300
0300
0300
0300
0300
0300
0300
FF00
FF00
0000
0000
0000
0000
0000
0000
0000
0000
0000
0000
0000
0000
0000
0000
0000
0000
0000
0000
ENDCHAR

STARTCHAR ldcornsqur
ENCODING 107
SWIDTH 360 0
DWIDTH 14 0
BBX 14 40 0 -10
BITMAP
0000
0000
0000
0000
0000
0000
0000
0000
0000
0000
0000
0000
0000
0000
0000
0000
0000
0000
0000
0000
FF00
FF00
0300
0300
0300
0300
0300
0300
0300
0300
0300
0300
0300
0300
0300
0300
0300
0300
0300
0300
ENDCHAR

STARTCHAR ldcornsqul
ENCODING 108
SWIDTH 360 0
DWIDTH 14 0
BBX 14 40 0 -10
BITMAP
0000
0000
0000
0000
0000
0000
0000
0000
0000
0000
0000
0000
0000
0000
0000
0000
0000
0000
0000
0000
03FC
03FC
0300
0300
0300
0300
0300
0300
0300
0300
0300
0300
0300
0300
0300
0300
0300
0300
0300
0300
ENDCHAR

STARTCHAR ldcornsqll
ENCODING 109
SWIDTH 360 0
DWIDTH 14 0
BBX 14 40 0 -10
BITMAP
0300
0300
0300
0300
0300
0300
0300
0300
0300
0300
0300
0300
0300
0300
0300
0300
0300
0300
0300
0300
03FC
03FC
0000
0000
0000
0000
0000
0000
0000
0000
0000
0000
0000
0000
0000
0000
0000
0000
0000
0000
ENDCHAR

STARTCHAR ldcross
ENCODING 110
SWIDTH 360 0
DWIDTH 14 0
BBX 14 40 0 -10
BITMAP
0300
0300
0300
0300
0300
0300
0300
0300
0300
0300
0300
0300
0300
0300
0300
0300
0300
0300
0300
0300
FFFC
FFFC
0300
0300
0300
0300
0300
0300
0300
0300
0300
0300
0300
0300
0300
0300
0300
0300
0300
0300
ENDCHAR

STARTCHAR ldscan1
ENCODING 111
SWIDTH 360 0
DWIDTH 14 0
BBX 14 40 0 -10
BITMAP
0000
0000
FFFC
FFFC
0000
0000
0000
0000
0000
0000
0000
0000
0000
0000
0000
0000
0000
0000
0000
0000
0000
0000
0000
0000
0000
0000
0000
0000
0000
0000
0000
0000
0000
0000
0000
0000
0000
0000
0000
0000
ENDCHAR

STARTCHAR ldscan3
ENCODING 112
SWIDTH 360 0
DWIDTH 14 0
BBX 14 40 0 -10
BITMAP
0000
0000
0000
0000
0000
0000
0000
0000
0000
0000
0000
FFFC
FFFC
0000
0000
0000
0000
0000
0000
0000
0000
0000
0000
0000
0000
0000
0000
0000
0000
0000
0000
0000
0000
0000
0000
0000
0000
0000
0000
0000
ENDCHAR

STARTCHAR ldhorizontal
ENCODING 113
SWIDTH 360 0
DWIDTH 14 0
BBX 14 40 0 -10
BITMAP
0000
0000
0000
0000
0000
0000
0000
0000
0000
0000
0000
0000
0000
0000
0000
0000
0000
0000
0000
0000
FFFC
FFFC
0000
0000
0000
0000
0000
0000
0000
0000
0000
0000
0000
0000
0000
0000
0000
0000
0000
0000
ENDCHAR

STARTCHAR ldscan7
ENCODING 114
SWIDTH 360 0
DWIDTH 14 0
BBX 14 40 0 -10
BITMAP
0000
0000
0000
0000
0000
0000
0000
0000
0000
0000
0000
0000
0000
0000
0000
0000
0000
0000
0000
0000
0000
0000
0000
0000
0000
0000
0000
0000
0000
FFFC
FFFC
0000
0000
0000
0000
0000
0000
0000
0000
0000
ENDCHAR

STARTCHAR ldscan9
ENCODING 115
SWIDTH 360 0
DWIDTH 14 0
BBX 14 40 0 -10
BITMAP
0000
0000
0000
0000
0000
0000
0000
0000
0000
0000
0000
0000
0000
0000
0000
0000
0000
0000
0000
0000
0000
0000
0000
0000
0000
0000
0000
0000
0000
0000
0000
0000
0000
0000
0000
0000
0000
0000
FFFC
FFFC
ENDCHAR

STARTCHAR ldteelft
ENCODING 116
SWIDTH 360 0
DWIDTH 14 0
BBX 14 40 0 -10
BITMAP
0300
0300
0300
0300
0300
0300
0300
0300
0300
0300
0300
0300
0300
0300
0300
0300
0300
0300
0300
0300
03FC
03FC
0300
0300
0300
0300
0300
0300
0300
0300
0300
0300
0300
0300
0300
0300
0300
0300
0300
0300
ENDCHAR

STARTCHAR ldteert
ENCODING 117
SWIDTH 360 0
DWIDTH 14 0
BBX 14 40 0 -10
BITMAP
0300
0300
0300
0300
0300
0300
0300
0300
0300
0300
0300
0300
0300
0300
0300
0300
0300
0300
0300
0300
FF00
FF00
0300
0300
0300
0300
0300
0300
0300
0300
0300
0300
0300
0300
0300
0300
0300
0300
0300
0300
ENDCHAR

STARTCHAR ldteebt
ENCODING 118
SWIDTH 360 0
DWIDTH 14 0
BBX 14 40 0 -10
BITMAP
0300
0300
0300
0300
0300
0300
0300
0300
0300
0300
0300
0300
0300
0300
0300
0300
0300
0300
0300
0300
FFFC
FFFC
0000
0000
0000
0000
0000
0000
0000
0000
0000
0000
0000
0000
0000
0000
0000
0000
0000
0000
ENDCHAR

STARTCHAR ldteetp
ENCODING 119
SWIDTH 360 0
DWIDTH 14 0
BBX 14 40 0 -10
BITMAP
0000
0000
0000
0000
0000
0000
0000
0000
0000
0000
0000
0000
0000
0000
0000
0000
0000
0000
0000
0000
FFFC
FFFC
0300
0300
0300
0300
0300
0300
0300
0300
0300
0300
0300
0300
0300
0300
0300
0300
0300
0300
ENDCHAR

STARTCHAR ldvertical
ENCODING 120
SWIDTH 360 0
DWIDTH 14 0
BBX 14 40 0 -10
BITMAP
0300
0300
0300
0300
0300
0300
0300
0300
0300
0300
0300
0300
0300
0300
0300
0300
0300
0300
0300
0300
0300
0300
0300
0300
0300
0300
0300
0300
0300
0300
0300
0300
0300
0300
0300
0300
0300
0300
0300
0300
ENDCHAR

STARTCHAR lessequal
ENCODING 121
SWIDTH 360 0
DWIDTH 14 0
BBX 14 40 0 -10
BITMAP
0000
0000
0000
0000
0000
0000
0000
0000
0000
0000
0000
0000
0000
0030
00F0
03C0
0F00
3C00
7000
3C00
0F00
03C0
00F0
0030
0000
0000
0000
0000
3FF0
3FF0
0000
0000
0000
0000
0000
0000
0000
0000
0000
0000
ENDCHAR

STARTCHAR greaterequal
ENCODING 122
SWIDTH 360 0
DWIDTH 14 0
BBX 14 40 0 -10
BITMAP
0000
0000
0000
0000
0000
0000
0000
0000
0000
0000
0000
0000
0000
6000
7800
1E00
0780
01E0
0070
01E0
0780
1E00
7800
6000
0000
0000
0000
0000
7FE0
7FE0
0000
0000
0000
0000
0000
0000
0000
0000
0000
0000
ENDCHAR

STARTCHAR pi
ENCODING 123
SWIDTH 360 0
DWIDTH 14 0
BBX 14 40 0 -10
BITMAP
0000
0000
0000
0000
0000
0000
0000
0000
0000
0000
0000
0000
7FF8
7FF8
1860
1860
1860
1860
30C0
30C0
30C0
30C0
30C0
30C0
6180
6180
6180
6180
61E0
61E0
0000
0000
0000
0000
0000
0000
0000
0000
0000
0000
ENDCHAR

STARTCHAR notequal
ENCODING 124
SWIDTH 360 0
DWIDTH 14 0
BBX 14 40 0 -10
BITMAP
0000
0000
0000
0000
0000
0000
0000
0000
0000
0000
0000
00C0
00C0
00C0
00C0
3FF0
3FF0
0300
0300
0300
0300
3FF0
3FF0
0C00
0C00
0C00
0C00
0000
0000
0000
0000
0000
0000
0000
0000
0000
0000
0000
0000
0000
ENDCHAR

STARTCHAR sterling
ENCODING 125
SWIDTH 360 0
DWIDTH 14 0
BBX 14 40 0 -10
BITMAP
0000
0000
0000
0000
0000
0000
0000
0000
0780
0FC0
1C60
1860
1860
1860
1800
1800
0C00
0C00
0C00
3FE0
3FE0
0600
0600
0600
0C00
0C00
1F08
3F98
61F8
6070
0000
0000
0000
0000
0000
0000
0000
0000
0000
0000
ENDCHAR

STARTCHAR periodcentered
ENCODING 126
SWIDTH 360 0
DWIDTH 14 0
BBX 14 40 0 -10
BITMAP
0000
0000
0000
0000
0000
0000
0000
0000
0000
0000
0000
0000
0000
0000
0000
0000
0000
0700
0F80
0F80
0700
0000
0000
0000
0000
0000
0000
0000
0000
0000
0000
0000
0000
0000
0000
0000
0000
0000
0000
0000
ENDCHAR

STARTCHAR Error
ENCODING 159
SWIDTH 360 0
DWIDTH 14 0
BBX 14 40 0 -10
BITMAP
0FC0
3FF0
3FF0
7878
7038
7038
7038
7038
7038
7000
7000
7800
3800
3C00
1E00
0F00
0700
0780
0380
0380
0380
0380
0380
0380
0380
0380
0000
0000
0000
0000
0000
0380
0380
07C0
07C0
07C0
0380
0380
0000
0000
ENDCHAR

STARTCHAR space
ENCODING 160
SWIDTH 360 0
DWIDTH 14 0
BBX 14 40 0 -10
BITMAP
0000
0000
0000
0000
0000
0000
0000
0000
0000
0000
0000
0000
0000
0000
0000
0000
0000
0000
0000
0000
0000
0000
0000
0000
0000
0000
0000
0000
0000
0000
0000
0000
0000
0000
0000
0000
0000
0000
0000
0000
ENDCHAR

STARTCHAR ldradicalbt
ENCODING 161
SWIDTH 360 0
DWIDTH 14 0
BBX 14 40 0 -10
BITMAP
0300
0300
0300
0300
0300
0300
0300
0300
0300
0300
0300
0300
0300
0300
0300
0300
0300
2300
7300
FB00
BF00
1F00
0F00
0700
0300
0000
0000
0000
0000
0000
0000
0000
0000
0000
0000
0000
0000
0000
0000
0000
ENDCHAR

STARTCHAR ldradicaltp
ENCODING 162
SWIDTH 360 0
DWIDTH 14 0
BBX 14 40 0 -10
BITMAP
0000
0000
0000
0000
0000
0000
0000
0000
0000
0000
0000
0000
0000
0000
0000
0000
0000
0000
0000
0000
03FC
03FC
0300
0300
0300
0300
0300
0300
0300
0300
0300
0300
0300
0300
0300
0300
0300
0300
0300
0300
ENDCHAR

STARTCHAR ldhorizontal
ENCODING 163
SWIDTH 360 0
DWIDTH 14 0
BBX 14 40 0 -10
BITMAP
0000
0000
0000
0000
0000
0000
0000
0000
0000
0000
0000
0000
0000
0000
0000
0000
0000
0000
0000
0000
FFFC
FFFC
0000
0000
0000
0000
0000
0000
0000
0000
0000
0000
0000
0000
0000
0000
0000
0000
0000
0000
ENDCHAR

STARTCHAR ldintegraltp
ENCODING 164
SWIDTH 360 0
DWIDTH 14 0
BBX 14 40 0 -10
BITMAP
0000
0000
00F0
01F8
0318
0300
0300
0300
0300
0300
0300
0300
0300
0300
0300
0300
0300
0300
0300
0300
0300
0300
0300
0300
0300
0300
0300
0300
0300
0300
0300
0300
0300
0300
0300
0300
0300
0300
0300
0300
ENDCHAR

STARTCHAR ldintegralbt
ENCODING 165
SWIDTH 360 0
DWIDTH 14 0
BBX 14 40 0 -10
BITMAP
0300
0300
0300
0300
0300
0300
0300
0300
0300
0300
0300
0300
0300
0300
0300
0300
0300
0300
0300
0300
0300
0300
0300
0300
0300
0300
0300
0300
0300
0300
0300
0300
0300
0300
6300
6300
7E00
3C00
0000
0000
ENDCHAR

STARTCHAR ldvertical
ENCODING 166
SWIDTH 360 0
DWIDTH 14 0
BBX 14 40 0 -10
BITMAP
0300
0300
0300
0300
0300
0300
0300
0300
0300
0300
0300
0300
0300
0300
0300
0300
0300
0300
0300
0300
0300
0300
0300
0300
0300
0300
0300
0300
0300
0300
0300
0300
0300
0300
0300
0300
0300
0300
0300
0300
ENDCHAR

STARTCHAR ldbracketlfttp
ENCODING 167
SWIDTH 360 0
DWIDTH 14 0
BBX 14 40 0 -10
BITMAP
0000
0000
03FC
03FC
0300
0300
0300
0300
0300
0300
0300
0300
0300
0300
0300
0300
0300
0300
0300
0300
0300
0300
0300
0300
0300
0300
0300
0300
0300
0300
0300
0300
0300
0300
0300
0300
0300
0300
0300
0300
ENDCHAR

STARTCHAR ldbracketlftbt
ENCODING 168
SWIDTH 360 0
DWIDTH 14 0
BBX 14 40 0 -10
BITMAP
0300
0300
0300
0300
0300
0300
0300
0300
0300
0300
0300
0300
0300
0300
0300
0300
0300
0300
0300
0300
0300
0300
0300
0300
0300
0300
0300
0300
0300
0300
0300
0300
0300
0300
0300
0300
03FC
03FC
0000
0000
ENDCHAR

STARTCHAR ldbracketrttp
ENCODING 169
SWIDTH 360 0
DWIDTH 14 0
BBX 14 40 0 -10
BITMAP
0000
0000
0000
0000
FF00
FF00
0300
0300
0300
0300
0300
0300
0300
0300
0300
0300
0300
0300
0300
0300
0300
0300
0300
0300
0300
0300
0300
0300
0300
0300
0300
0300
0300
0300
0300
0300
0300
0300
0300
0300
ENDCHAR

STARTCHAR ldbracketrtbt
ENCODING 170
SWIDTH 360 0
DWIDTH 14 0
BBX 14 40 0 -10
BITMAP
0300
0300
0300
0300
0300
0300
0300
0300
0300
0300
0300
0300
0300
0300
0300
0300
0300
0300
0300
0300
0300
0300
0300
0300
0300
0300
0300
0300
0300
0300
0300
0300
0300
0300
0300
0300
FF00
FF00
0000
0000
ENDCHAR

STARTCHAR ldbracelfttp
ENCODING 171
SWIDTH 360 0
DWIDTH 14 0
BBX 14 40 0 -10
BITMAP
0000
0000
001C
007C
00E0
00C0
0180
0180
0180
0300
0300
0300
0300
0300
0300
0300
0300
0300
0300
0300
0300
0300
0300
0300
0300
0300
0300
0300
0300
0300
0300
0300
0300
0300
0300
0300
0300
0300
0300
0300
ENDCHAR

STARTCHAR ldbracelftbt
ENCODING 172
SWIDTH 360 0
DWIDTH 14 0
BBX 14 40 0 -10
BITMAP
0300
0300
0300
0300
0300
0300
0300
0300
0300
0300
0300
0300
0300
0300
0300
0300
0300
0300
0300
0300
0300
0300
0300
0300
0300
0300
0300
0300
0300
0300
0300
0180
0180
0180
00C0
00E0
007C
001C
0000
0000
ENDCHAR

STARTCHAR ldbracerttp
ENCODING 173
SWIDTH 360 0
DWIDTH 14 0
BBX 14 40 0 -10
BITMAP
0000
0000
E000
F800
1C00
0C00
0600
0600
0600
0300
0300
0300
0300
0300
0300
0300
0300
0300
0300
0300
0300
0300
0300
0300
0300
0300
0300
0300
0300
0300
0300
0300
0300
0300
0300
0300
0300
0300
0300
0300
ENDCHAR

STARTCHAR ldbracertbt
ENCODING 174
SWIDTH 360 0
DWIDTH 14 0
BBX 14 40 0 -10
BITMAP
0300
0300
0300
0300
0300
0300
0300
0300
0300
0300
0300
0300
0300
0300
0300
0300
0300
0300
0300
0300
0300
0300
0300
0300
0300
0300
0300
0300
0300
0300
0300
0600
0600
0600
0C00
1C00
F800
E000
0000
0000
ENDCHAR

STARTCHAR ldbracelftmid
ENCODING 175
SWIDTH 360 0
DWIDTH 14 0
BBX 14 40 0 -10
BITMAP
0300
0300
0300
0300
0300
0300
0300
0300
0300
0300
0300
0300
0300
0300
0300
0300
0300
0600
0E00
3800
3800
0E00
0600
0300
0300
0300
0300
0300
0300
0300
0300
0300
0300
0300
0300
0300
0300
0300
0300
0300
ENDCHAR

STARTCHAR ldbracertmid
ENCODING 176
SWIDTH 360 0
DWIDTH 14 0
BBX 14 40 0 -10
BITMAP
0300
0300
0300
0300
0300
0300
0300
0300
0300
0300
0300
0300
0300
0300
0300
0300
0300
0180
01C0
0070
0070
01C0
0180
0300
0300
0300
0300
0300
0300
0300
0300
0300
0300
0300
0300
0300
0300
0300
0300
0300
ENDCHAR

STARTCHAR ldsigmalfttp
ENCODING 177
SWIDTH 360 0
DWIDTH 14 0
BBX 14 40 0 -10
BITMAP
0000
0000
0000
0000
0000
0000
0000
0000
0000
0000
0000
0000
0000
0000
0000
0000
0000
0000
0000
0000
01FC
01FC
0180
0080
00C0
00C0
0040
0060
0060
0020
0030
0030
0010
0018
0018
0008
000C
000C
0004
0004
ENDCHAR

STARTCHAR ldsigmalftbt
ENCODING 178
SWIDTH 360 0
DWIDTH 14 0
BBX 14 40 0 -10
BITMAP
0004
000C
000C
0008
0018
0018
0010
0030
0030
0020
0060
0060
0040
00C0
00C0
0080
0180
0180
0300
0300
03FC
03FC
0000
0000
0000
0000
0000
0000
0000
0000
0000
0000
0000
0000
0000
0000
0000
0000
0000
0000
ENDCHAR

STARTCHAR ldbackslash
ENCODING 179
SWIDTH 360 0
DWIDTH 14 0
BBX 14 40 0 -10
BITMAP
8000
8000
C000
C000
C000
4000
6000
6000
6000
2000
3000
3000
1800
1800
0800
0800
0C00
0C00
0600
0600
0200
0200
0300
0300
0180
0180
0080
0080
00C0
00C0
0060
0060
0030
0030
0010
0010
0018
0018
000C
000C
ENDCHAR

STARTCHAR ldslash
ENCODING 180
SWIDTH 360 0
DWIDTH 14 0
BBX 14 40 0 -10
BITMAP
0004
000C
000C
0008
0018
0018
0010
0030
0030
0020
0060
0060
00C0
00C0
0080
0080
0180
0180
0300
0300
0200
0200
0600
0600
0C00
0C00
0800
0800
1800
1800
3000
3000
6000
6000
4000
4000
C000
C000
8000
8000
ENDCHAR

STARTCHAR ldsigmarttp
ENCODING 181
SWIDTH 360 0
DWIDTH 14 0
BBX 14 40 0 -10
BITMAP
0000
0000
0000
0000
0000
0000
0000
0000
0000
0000
0000
0000
0000
0000
0000
0000
0000
0000
0000
0000
FFFC
FFFC
000C
000C
000C
000C
0000
0000
0000
0000
0000
0000
0000
0000
0000
0000
0000
0000
0000
0000
ENDCHAR

STARTCHAR ldsigmartbt
ENCODING 182
SWIDTH 360 0
DWIDTH 14 0
BBX 14 40 0 -10
BITMAP
0000
0000
0000
0000
0000
0000
0000
0000
0000
0000
0000
0000
0000
0000
0000
0000
000C
000C
000C
000C
FFFC
FFFC
0000
0000
0000
0000
0000
0000
0000
0000
0000
0000
0000
0000
0000
0000
0000
0000
0000
0000
ENDCHAR

STARTCHAR ldsigmamid
ENCODING 183
SWIDTH 360 0
DWIDTH 14 0
BBX 14 40 0 -10
BITMAP
8000
8000
8000
C000
C000
4000
6000
6000
2000
3000
3000
1000
1800
1800
0800
0C00
0C00
0400
0600
0600
0600
0600
0600
0600
0400
0C00
0C00
0800
1800
1800
3000
3000
2000
6000
6000
4000
C000
C000
8000
8000
ENDCHAR

STARTCHAR lessequal
ENCODING 188
SWIDTH 360 0
DWIDTH 14 0
BBX 14 40 0 -10
BITMAP
0000
0000
0000
0000
0000
0000
0000
0000
0000
0000
0000
0000
0000
0030
00F0
03C0
0F00
3C00
7000
3C00
0F00
03C0
00F0
0030
0000
0000
0000
0000
3FF0
3FF0
0000
0000
0000
0000
0000
0000
0000
0000
0000
0000
ENDCHAR

STARTCHAR notequal
ENCODING 189
SWIDTH 360 0
DWIDTH 14 0
BBX 14 40 0 -10
BITMAP
0000
0000
0000
0000
0000
0000
0000
0000
0000
0000
0000
00C0
00C0
00C0
00C0
3FF0
3FF0
0300
0300
0300
0300
3FF0
3FF0
0C00
0C00
0C00
0C00
0000
0000
0000
0000
0000
0000
0000
0000
0000
0000
0000
0000
0000
ENDCHAR

STARTCHAR greaterequal
ENCODING 190
SWIDTH 360 0
DWIDTH 14 0
BBX 14 40 0 -10
BITMAP
0000
0000
0000
0000
0000
0000
0000
0000
0000
0000
0000
0000
0000
6000
7800
1E00
0780
01E0
0070
01E0
0780
1E00
7800
6000
0000
0000
0000
0000
7FE0
7FE0
0000
0000
0000
0000
0000
0000
0000
0000
0000
0000
ENDCHAR

STARTCHAR integral
ENCODING 191
SWIDTH 360 0
DWIDTH 14 0
BBX 14 40 0 -10
BITMAP
0000
0000
01E0
01F0
0330
0300
0300
0300
0300
0300
0300
0300
0300
0300
0300
0300
0300
0300
0300
0300
0300
0300
0300
0300
0300
0300
0300
0300
0300
0300
0300
0300
0300
0300
0300
3300
3E00
1E00
0000
0000
ENDCHAR

STARTCHAR therefore
ENCODING 192
SWIDTH 360 0
DWIDTH 14 0
BBX 14 40 0 -10
BITMAP
0000
0000
0000
0000
0000
0000
0000
0000
0000
0000
0000
0000
0700
0F80
0F80
0F80
0700
0000
0000
0000
0000
0000
0000
0000
0000
7070
F8F8
F8F8
F8F8
7070
0000
0000
0000
0000
0000
0000
0000
0000
0000
0000
ENDCHAR

STARTCHAR proportional
ENCODING 193
SWIDTH 360 0
DWIDTH 14 0
BBX 14 40 0 -10
BITMAP
0000
0000
0000
0000
0000
0000
0000
0000
0000
0000
0000
0000
1C38
3E78
63C0
6180
6180
6180
6180
6180
6180
6180
6180
63C0
3E78
1C38
0000
0000
0000
0000
0000
0000
0000
0000
0000
0000
0000
0000
0000
0000
ENDCHAR

STARTCHAR infinity
ENCODING 194
SWIDTH 360 0
DWIDTH 14 0
BBX 14 40 0 -10
BITMAP
0000
0000
0000
0000
0000
0000
0000
0000
0000
0000
0000
0000
3870
7CF8
C78C
C30C
C30C
C30C
C30C
C30C
C30C
C30C
C30C
C78C
7CF8
3870
0000
0000
0000
0000
0000
0000
0000
0000
0000
0000
0000
0000
0000
0000
ENDCHAR

STARTCHAR divide
ENCODING 195
SWIDTH 360 0
DWIDTH 14 0
BBX 14 40 0 -10
BITMAP
0000
0000
0000
0000
0000
0000
0000
0000
0000
0000
0000
0000
0300
0300
0300
0300
0000
0000
3FF0
3FF0
0000
0000
0300
0300
0300
0300
0000
0000
0000
0000
0000
0000
0000
0000
0000
0000
0000
0000
0000
0000
ENDCHAR

STARTCHAR Delta
ENCODING 196
SWIDTH 360 0
DWIDTH 14 0
BBX 14 40 0 -10
BITMAP
0000
0000
0000
0000
0000
0000
0000
0000
0300
0300
0300
0300
0780
0780
0780
0780
0CC0
0CC0
0CC0
0CC0
1860
1860
1860
1860
3030
3030
3030
3030
7FF8
7FF8
0000
0000
0000
0000
0000
0000
0000
0000
0000
0000
ENDCHAR

STARTCHAR gradient
ENCODING 197
SWIDTH 360 0
DWIDTH 14 0
BBX 14 40 0 -10
BITMAP
0000
0000
0000
0000
0000
0000
0000
0000
7FF8
7FF8
3030
3030
3030
3030
1860
1860
1860
1860
0CC0
0CC0
0CC0
0CC0
0780
0780
0780
0780
0300
0300
0300
0300
0000
0000
0000
0000
0000
0000
0000
0000
0000
0000
ENDCHAR

STARTCHAR Phi
ENCODING 198
SWIDTH 360 0
DWIDTH 14 0
BBX 14 40 0 -10
BITMAP
0000
0000
0000
0000
0000
0000
0000
0000
0FC0
0FC0
0300
0300
0FC0
1FE0
3330
3330
3330
3330
3330
3330
3330
3330
3330
3330
1FE0
0FC0
0300
0300
0FC0
0FC0
0000
0000
0000
0000
0000
0000
0000
0000
0000
0000
ENDCHAR

STARTCHAR Gamma
ENCODING 199
SWIDTH 360 0
DWIDTH 14 0
BBX 14 40 0 -10
BITMAP
0000
0000
0000
0000
0000
0000
0000
0000
3FF0
3FF0
0C30
0C30
0C30
0C30
0C30
0C00
0C00
0C00
0C00
0C00
0C00
0C00
0C00
0C00
0C00
0C00
0C00
0C00
3FC0
3FC0
0000
0000
0000
0000
0000
0000
0000
0000
0000
0000
ENDCHAR

STARTCHAR similar
ENCODING 200
SWIDTH 360 0
DWIDTH 14 0
BBX 14 40 0 -10
BITMAP
0000
0000
0000
0000
0000
0000
0000
0000
0000
0000
0000
0000
0000
0000
0000
0000
0000
1E30
3F30
33F0
31E0
0000
0000
0000
0000
0000
0000
0000
0000
0000
0000
0000
0000
0000
0000
0000
0000
0000
0000
0000
ENDCHAR

STARTCHAR approxequal
ENCODING 201
SWIDTH 360 0
DWIDTH 14 0
BBX 14 40 0 -10
BITMAP
0000
0000
0000
0000
0000
0000
0000
0000
0000
0000
0000
0000
0000
0000
0000
0000
0000
1E30
3F30
33F0
31E0
0000
0000
3FF0
3FF0
0000
0000
0000
0000
0000
0000
0000
0000
0000
0000
0000
0000
0000
0000
0000
ENDCHAR

STARTCHAR Theta
ENCODING 202
SWIDTH 360 0
DWIDTH 14 0
BBX 14 40 0 -10
BITMAP
0000
0000
0000
0000
0000
0000
0000
0000
0780
1FE0
1860
3030
3030
3030
3030
3030
3330
3330
3330
3330
3330
3330
3030
3030
3030
3030
3030
1860
1FE0
0780
0000
0000
0000
0000
0000
0000
0000
0000
0000
0000
ENDCHAR

STARTCHAR multiply
ENCODING 203
SWIDTH 360 0
DWIDTH 14 0
BBX 14 40 0 -10
BITMAP
0000
0000
0000
0000
0000
0000
0000
0000
0000
0000
0000
0000
0000
0000
2010
3030
1860
0CC0
0780
0300
0780
0CC0
1860
3030
2010
0000
0000
0000
0000
0000
0000
0000
0000
0000
0000
0000
0000
0000
0000
0000
ENDCHAR

STARTCHAR Lambda
ENCODING 204
SWIDTH 360 0
DWIDTH 14 0
BBX 14 40 0 -10
BITMAP
0000
0000
0000
0000
0000
0000
0000
0000
0300
0300
0300
0300
0780
0780
0780
0780
0CC0
0CC0
0CC0
0CC0
1860
1860
1860
1860
3030
3030
3030
3030
FCFC
FCFC
0000
0000
0000
0000
0000
0000
0000
0000
0000
0000
ENDCHAR

STARTCHAR arrowdblboth
ENCODING 205
SWIDTH 360 0
DWIDTH 14 0
BBX 14 40 0 -10
BITMAP
0000
0000
0000
0000
0000
0000
0000
0000
0000
0000
0000
0000
1860
1860
3030
2010
7FF8
7FF8
C00C
C00C
7FF8
7FF8
2010
3030
1860
1860
0000
0000
0000
0000
0000
0000
0000
0000
0000
0000
0000
0000
0000
0000
ENDCHAR

STARTCHAR arrowdblright
ENCODING 206
SWIDTH 360 0
DWIDTH 14 0
BBX 14 40 0 -10
BITMAP
0000
0000
0000
0000
0000
0000
0000
0000
0000
0000
0000
0000
00C0
00C0
0060
0030
FFF0
FFF8
000C
000C
FFF8
FFF0
0030
0060
00C0
00C0
0000
0000
0000
0000
0000
0000
0000
0000
0000
0000
0000
0000
0000
0000
ENDCHAR

STARTCHAR equivalence
ENCODING 207
SWIDTH 360 0
DWIDTH 14 0
BBX 14 40 0 -10
BITMAP
0000
0000
0000
0000
0000
0000
0000
0000
0000
0000
0000
0000
3FF0
3FF0
0000
0000
0000
0000
3FF0
3FF0
0000
0000
0000
0000
3FF0
3FF0
0000
0000
0000
0000
0000
0000
0000
0000
0000
0000
0000
0000
0000
0000
ENDCHAR

STARTCHAR Pi
ENCODING 208
SWIDTH 360 0
DWIDTH 14 0
BBX 14 40 0 -10
BITMAP
0000
0000
0000
0000
0000
0000
0000
0000
FFFC
FFFC
3030
3030
3030
3030
3030
3030
3030
3030
3030
3030
3030
3030
3030
3030
3030
3030
3030
3030
FCFC
FCFC
0000
0000
0000
0000
0000
0000
0000
0000
0000
0000
ENDCHAR

STARTCHAR Psi
ENCODING 209
SWIDTH 360 0
DWIDTH 14 0
BBX 14 40 0 -10
BITMAP
0000
0000
0000
0000
0000
0000
0000
0000
0FC0
0FC0
0300
0300
3330
3330
3330
3330
3330
3330
3330
3330
3330
3330
1FE0
0FC0
0300
0300
0300
0300
0FC0
0FC0
0000
0000
0000
0000
0000
0000
0000
0000
0000
0000
ENDCHAR

STARTCHAR Sigma
ENCODING 211
SWIDTH 360 0
DWIDTH 14 0
BBX 14 40 0 -10
BITMAP
0000
0000
0000
0000
0000
0000
0000
0000
7FF8
7FF8
3018
3818
1818
1C18
0C18
0E00
0600
0700
0380
0380
0700
0600
0E00
0C18
1C18
1818
3818
3018
7FF8
7FF8
0000
0000
0000
0000
0000
0000
0000
0000
0000
0000
ENDCHAR

STARTCHAR radical
ENCODING 214
SWIDTH 360 0
DWIDTH 14 0
BBX 14 40 0 -10
BITMAP
0000
0000
001C
001C
0018
0018
0018
0030
0030
0030
0030
0030
0060
0060
6060
6060
6060
60C0
30C0
30C0
30C0
30C0
1980
1980
1980
1980
0D80
0D80
0F00
0F00
0700
0700
0600
0600
0000
0000
0000
0000
0000
0000
ENDCHAR

STARTCHAR Omega
ENCODING 215
SWIDTH 360 0
DWIDTH 14 0
BBX 14 40 0 -10
BITMAP
0000
0000
0000
0000
0000
0000
0000
0000
0780
1FE0
1860
3030
3030
3030
3030
3030
3030
3030
3030
3030
3030
3030
1860
1860
0CC0
0CC0
0CC0
0CC0
3CF0
3CF0
0000
0000
0000
0000
0000
0000
0000
0000
0000
0000
ENDCHAR

STARTCHAR Xi
ENCODING 216
SWIDTH 360 0
DWIDTH 14 0
BBX 14 40 0 -10
BITMAP
0000
0000
0000
0000
0000
0000
0000
0000
3FF0
3FF0
3030
3030
3030
3030
0000
0000
0CC0
0CC0
0FC0
0FC0
0CC0
0CC0
0000
0000
3030
3030
3030
3030
3FF0
3FF0
0000
0000
0000
0000
0000
0000
0000
0000
0000
0000
ENDCHAR

STARTCHAR Upsilon1
ENCODING 217
SWIDTH 360 0
DWIDTH 14 0
BBX 14 40 0 -10
BITMAP
0000
0000
0000
0000
0000
0000
0000
0000
E01C
E01C
3030
3030
1860
1860
1860
0CC0
0CC0
0CC0
0780
0780
0300
0300
0300
0300
0300
0300
0300
0300
0FC0
0FC0
0000
0000
0000
0000
0000
0000
0000
0000
0000
0000
ENDCHAR

STARTCHAR propersubset
ENCODING 218
SWIDTH 360 0
DWIDTH 14 0
BBX 14 40 0 -10
BITMAP
0000
0000
0000
0000
0000
0000
0000
0000
0000
0000
07F0
1FF0
1800
3000
3000
3000
3000
3000
3000
3000
3000
3000
3000
3000
3000
3000
1800
1FF0
07F0
0000
0000
0000
0000
0000
0000
0000
0000
0000
0000
0000
ENDCHAR

STARTCHAR propersuperset
ENCODING 219
SWIDTH 360 0
DWIDTH 14 0
BBX 14 40 0 -10
BITMAP
0000
0000
0000
0000
0000
0000
0000
0000
0000
0000
3F80
3FE0
0060
0030
0030
0030
0030
0030
0030
0030
0030
0030
0030
0030
0030
0030
0060
3FE0
3F80
0000
0000
0000
0000
0000
0000
0000
0000
0000
0000
0000
ENDCHAR

STARTCHAR intersection
ENCODING 220
SWIDTH 360 0
DWIDTH 14 0
BBX 14 40 0 -10
BITMAP
0000
0000
0000
0000
0000
0000
0000
0000
0000
0780
1FE0
1860
3030
3030
3030
3030
3030
3030
3030
3030
3030
3030
3030
3030
3030
3030
3030
3030
3030
0000
0000
0000
0000
0000
0000
0000
0000
0000
0000
0000
ENDCHAR

STARTCHAR union
ENCODING 221
SWIDTH 360 0
DWIDTH 14 0
BBX 14 40 0 -10
BITMAP
0000
0000
0000
0000
0000
0000
0000
0000
0000
3030
3030
3030
3030
3030
3030
3030
3030
3030
3030
3030
3030
3030
3030
3030
3030
3030
1860
1FE0
0780
0000
0000
0000
0000
0000
0000
0000
0000
0000
0000
0000
ENDCHAR

STARTCHAR logicaland
ENCODING 222
SWIDTH 360 0
DWIDTH 14 0
BBX 14 40 0 -10
BITMAP
0000
0000
0000
0000
0000
0000
0000
0000
0000
0300
0300
0300
0780
0780
0480
0CC0
0CC0
0CC0
0CC0
1860
1860
1860
1860
3030
3030
3030
3030
6018
6018
0000
0000
0000
0000
0000
0000
0000
0000
0000
0000
0000
ENDCHAR

STARTCHAR logicalor
ENCODING 223
SWIDTH 360 0
DWIDTH 14 0
BBX 14 40 0 -10
BITMAP
0000
0000
0000
0000
0000
0000
0000
0000
0000
6018
6018
3030
3030
3030
3030
1860
1860
1860
1860
0CC0
0CC0
0CC0
0CC0
0480
0780
0780
0300
0300
0300
0000
0000
0000
0000
0000
0000
0000
0000
0000
0000
0000
ENDCHAR

STARTCHAR logicalnot
ENCODING 224
SWIDTH 360 0
DWIDTH 14 0
BBX 14 40 0 -10
BITMAP
0000
0000
0000
0000
0000
0000
0000
0000
0000
0000
0000
0000
0000
0000
0000
0000
0000
3FF0
3FF0
0030
0030
0030
0030
0000
0000
0000
0000
0000
0000
0000
0000
0000
0000
0000
0000
0000
0000
0000
0000
0000
ENDCHAR

STARTCHAR alpha
ENCODING 225
SWIDTH 360 0
DWIDTH 14 0
BBX 14 40 0 -10
BITMAP
0000
0000
0000
0000
0000
0000
0000
0000
0000
0000
0000
0000
0F18
0F98
38F8
3070
3030
6030
6030
6030
6030
6060
6060
6060
6060
6060
60E0
31E0
3F78
1E78
0000
0000
0000
0000
0000
0000
0000
0000
0000
0000
ENDCHAR

STARTCHAR beta
ENCODING 226
SWIDTH 360 0
DWIDTH 14 0
BBX 14 40 0 -10
BITMAP
0000
0000
0000
0000
0000
0000
01E0
03F0
0618
0618
0618
0618
0C18
0C18
0C18
0C30
0DE0
0DF0
1818
1818
1818
1818
1818
1818
3018
3018
3418
3418
33F0
33E0
3000
3000
6000
6000
6000
6000
6000
6000
0000
0000
ENDCHAR

STARTCHAR chi
ENCODING 227
SWIDTH 360 0
DWIDTH 14 0
BBX 14 40 0 -10
BITMAP
0000
0000
0000
0000
0000
0000
0000
0000
0000
0000
0000
0000
1E18
1E18
0618
0630
0630
0220
0360
0360
03C0
01C0
0180
0180
0180
0380
0380
0380
06C0
06C0
0CC0
0C40
1860
1860
7878
7878
0000
0000
0000
0000
ENDCHAR

STARTCHAR delta
ENCODING 228
SWIDTH 360 0
DWIDTH 14 0
BBX 14 40 0 -10
BITMAP
0000
0000
0000
0000
0000
0000
01F0
03F0
0600
0600
0600
0300
0300
0180
07C0
1EE0
1860
3030
3030
3030
3030
3030
3030
3030
3030
3030
3030
1860
1FE0
0780
0000
0000
0000
0000
0000
0000
0000
0000
0000
0000
ENDCHAR

STARTCHAR epsilon
ENCODING 229
SWIDTH 360 0
DWIDTH 14 0
BBX 14 40 0 -10
BITMAP
0000
0000
0000
0000
0000
0000
0000
0000
0000
0000
0000
0000
01F0
07F0
0E00
0C00
1800
1800
3000
3000
3FF0
3FF0
3000
3000
3000
3800
1800
1C00
0FF0
03F0
0000
0000
0000
0000
0000
0000
0000
0000
0000
0000
ENDCHAR

STARTCHAR phi
ENCODING 230
SWIDTH 360 0
DWIDTH 14 0
BBX 14 40 0 -10
BITMAP
0000
0000
0000
0000
0000
0000
0180
0180
0180
0180
0180
0180
07E0
0FE0
19B0
19B0
3198
3198
3318
6318
6318
6318
6318
6318
6318
6630
3630
3660
1FE0
1F80
0600
0600
0600
0600
0600
0600
0600
0600
0000
0000
ENDCHAR

STARTCHAR gamma
ENCODING 231
SWIDTH 360 0
DWIDTH 14 0
BBX 14 40 0 -10
BITMAP
0000
0000
0000
0000
0000
0000
0000
0000
0000
0000
0000
0000
3030
3030
3030
3030
1860
1860
1860
1860
0CC0
0CC0
0CC0
0480
0780
0780
0300
0300
0300
0300
0600
0600
0600
0600
0C00
0C00
0000
0000
0000
0000
ENDCHAR

STARTCHAR eta
ENCODING 232
SWIDTH 360 0
DWIDTH 14 0
BBX 14 40 0 -10
BITMAP
0000
0000
0000
0000
0000
0000
0000
0000
0000
0000
0000
0000
33E0
3FF0
0C30
0C30
0C30
0C30
1830
1830
1860
1860
1860
1860
1860
3060
3060
3060
30C0
30C0
00C0
00C0
00C0
00C0
00C0
00C0
0000
0000
0000
0000
ENDCHAR

STARTCHAR iota
ENCODING 233
SWIDTH 360 0
DWIDTH 14 0
BBX 14 40 0 -10
BITMAP
0000
0000
0000
0000
0000
0000
0000
0000
0000
0000
0000
0000
0F00
0F00
0300
0300
0300
0300
0600
0600
0600
0600
0600
0600
0C00
0C00
0CC0
0CC0
07C0
0780
0000
0000
0000
0000
0000
0000
0000
0000
0000
0000
ENDCHAR

STARTCHAR theta
ENCODING 234
SWIDTH 360 0
DWIDTH 14 0
BBX 14 40 0 -10
BITMAP
0000
0000
0000
0000
0000
0000
03E0
07E0
0C30
0C30
0C30
1830
1830
1830
1830
1830
3FF0
3FF0
3030
3030
3030
3060
3060
3060
3060
30C0
30C0
30C0
1F80
1F00
0000
0000
0000
0000
0000
0000
0000
0000
0000
0000
ENDCHAR

STARTCHAR kappa
ENCODING 235
SWIDTH 360 0
DWIDTH 14 0
BBX 14 40 0 -10
BITMAP
0000
0000
0000
0000
0000
0000
0000
0000
0000
0000
0000
0000
1860
1860
18C0
18C0
1980
1980
1B00
1B00
1E00
3E00
3300
3300
3300
3180
3180
3180
30C0
30E0
0000
0000
0000
0000
0000
0000
0000
0000
0000
0000
ENDCHAR

STARTCHAR lambda
ENCODING 236
SWIDTH 360 0
DWIDTH 14 0
BBX 14 40 0 -10
BITMAP
0000
0000
0000
0000
0000
0000
0F00
0F00
0300
0300
0300
0300
0300
0300
0700
0700
0700
0700
0D80
0D80
0D80
0D80
1980
1980
18C0
18C0
30C0
30C0
30F0
30F0
0000
0000
0000
0000
0000
0000
0000
0000
0000
0000
ENDCHAR

STARTCHAR nu
ENCODING 238
SWIDTH 360 0
DWIDTH 14 0
BBX 14 40 0 -10
BITMAP
0000
0000
0000
0000
0000
0000
0000
0000
0000
0000
0000
0000
3C30
3C30
0C30
0C30
0C30
0C30
0C30
0C60
0C60
0C60
0CC0
0CC0
0D80
0D80
0F00
0F00
0E00
0E00
0000
0000
0000
0000
0000
0000
0000
0000
0000
0000
ENDCHAR

STARTCHAR partialdiff
ENCODING 239
SWIDTH 360 0
DWIDTH 14 0
BBX 14 40 0 -10
BITMAP
0000
0000
0000
0000
0000
0000
1E00
1F80
01C0
00C0
0060
0060
0030
0FB0
1FF0
1870
3030
3030
3030
3030
3030
3030
3030
3030
3030
3030
3030
1860
1FE0
0FC0
0000
0000
0000
0000
0000
0000
0000
0000
0000
0000
ENDCHAR

STARTCHAR pi
ENCODING 240
SWIDTH 360 0
DWIDTH 14 0
BBX 14 40 0 -10
BITMAP
0000
0000
0000
0000
0000
0000
0000
0000
0000
0000
0000
0000
7FF8
7FF8
1860
1860
1860
1860
30C0
30C0
30C0
30C0
30C0
30C0
6180
6180
6180
6180
61E0
61E0
0000
0000
0000
0000
0000
0000
0000
0000
0000
0000
ENDCHAR

STARTCHAR psi
ENCODING 241
SWIDTH 360 0
DWIDTH 14 0
BBX 14 40 0 -10
BITMAP
0000
0000
0000
0000
0000
0000
0300
0300
0300
0300
0300
0300
3330
3330
3330
3330
3330
3630
6630
6630
6660
6660
6660
6660
6660
6660
6660
36C0
3FC0
0F00
0C00
0C00
0C00
0C00
0C00
0C00
0000
0000
0000
0000
ENDCHAR

STARTCHAR rho
ENCODING 242
SWIDTH 360 0
DWIDTH 14 0
BBX 14 40 0 -10
BITMAP
0000
0000
0000
0000
0000
0000
0000
0000
0000
0000
0000
0000
03C0
0FE0
0C60
1830
1830
1830
3030
3030
3030
3030
3030
3030
3030
3060
3060
38C0
3FC0
3700
3000
3000
3000
3000
3000
3000
0000
0000
0000
0000
ENDCHAR

STARTCHAR sigma
ENCODING 243
SWIDTH 360 0
DWIDTH 14 0
BBX 14 40 0 -10
BITMAP
0000
0000
0000
0000
0000
0000
0000
0000
0000
0000
0000
0000
0FF8
1FF8
38C0
3060
3060
7060
6060
6060
6060
6060
6060
6060
60E0
60C0
60C0
31C0
3F80
0F00
0000
0000
0000
0000
0000
0000
0000
0000
0000
0000
ENDCHAR

STARTCHAR tau
ENCODING 244
SWIDTH 360 0
DWIDTH 14 0
BBX 14 40 0 -10
BITMAP
0000
0000
0000
0000
0000
0000
0000
0000
0000
0000
0000
0000
3FF0
3FF0
0300
0300
0300
0300
0600
0600
0600
0600
0600
0600
0C00
0C00
0C30
0C30
07E0
07C0
0000
0000
0000
0000
0000
0000
0000
0000
0000
0000
ENDCHAR

STARTCHAR florin
ENCODING 246
SWIDTH 360 0
DWIDTH 14 0
BBX 14 40 0 -10
BITMAP
0000
0000
0000
0000
0000
0000
0000
0000
00F0
01F0
0180
0300
0300
0300
0300
0300
3FF0
3FF0
0300
0300
0300
0300
0300
0300
0600
0600
0600
0600
0600
0600
0600
0C00
0C00
0C00
F800
F000
0000
0000
0000
0000
ENDCHAR

STARTCHAR omega
ENCODING 247
SWIDTH 360 0
DWIDTH 14 0
BBX 14 40 0 -10
BITMAP
0000
0000
0000
0000
0000
0000
0000
0000
0000
0000
0000
0000
1818
1818
1818
1818
1998
1998
1998
3330
3330
3330
3330
3330
3330
3330
3330
3330
1FE0
0CC0
0000
0000
0000
0000
0000
0000
0000
0000
0000
0000
ENDCHAR

STARTCHAR xi
ENCODING 248
SWIDTH 360 0
DWIDTH 14 0
BBX 14 40 0 -10
BITMAP
0000
0000
0000
0000
0000
0000
0FF0
0FF0
0180
0300
0600
0600
0C00
0C00
0E00
0600
03C0
03C0
0600
0C00
1800
1800
3000
3000
3000
3000
3000
3800
1FE0
0FF0
0030
0030
0030
0030
0030
0030
00E0
00C0
0000
0000
ENDCHAR

STARTCHAR upsilon
ENCODING 249
SWIDTH 360 0
DWIDTH 14 0
BBX 14 40 0 -10
BITMAP
0000
0000
0000
0000
0000
0000
0000
0000
0000
0000
0000
0000
3030
3030
3030
3030
3030
3030
3030
3030
3030
3030
3030
3030
3060
3060
3060
18C0
1FC0
0F00
0000
0000
0000
0000
0000
0000
0000
0000
0000
0000
ENDCHAR

STARTCHAR zeta
ENCODING 250
SWIDTH 360 0
DWIDTH 14 0
BBX 14 40 0 -10
BITMAP
0000
0000
0000
0000
0000
0000
0FF0
0FF0
0030
0060
00E0
00C0
0180
0300
0700
0600
0C00
1C00
1800
1800
3800
3000
3000
3000
3000
3000
3000
1800
1FC0
07E0
0070
0030
0030
0030
0030
0030
00E0
00C0
0000
0000
ENDCHAR

STARTCHAR arrowleft
ENCODING 251
SWIDTH 360 0
DWIDTH 14 0
BBX 14 40 0 -10
BITMAP
0000
0000
0000
0000
0000
0000
0000
0000
0000
0000
0000
0000
0000
0000
0000
0000
0600
0C00
1800
3000
7FFC
7FFC
3000
1800
0C00
0600
0000
0000
0000
0000
0000
0000
0000
0000
0000
0000
0000
0000
0000
0000
ENDCHAR

STARTCHAR arrowup
ENCODING 252
SWIDTH 360 0
DWIDTH 14 0
BBX 14 40 0 -10
BITMAP
0000
0000
0000
0000
0000
0000
0000
0300
0300
0780
0780
0FC0
0FC0
1B60
1B60
3330
3330
0300
0300
0300
0300
0300
0300
0300
0300
0300
0300
0300
0300
0300
0300
0300
0000
0000
0000
0000
0000
0000
0000
0000
ENDCHAR

STARTCHAR arrowright
ENCODING 253
SWIDTH 360 0
DWIDTH 14 0
BBX 14 40 0 -10
BITMAP
0000
0000
0000
0000
0000
0000
0000
0000
0000
0000
0000
0000
0000
0000
0000
0000
0180
00C0
0060
0030
FFF8
FFF8
0030
0060
00C0
0180
0000
0000
0000
0000
0000
0000
0000
0000
0000
0000
0000
0000
0000
0000
ENDCHAR

STARTCHAR arrowdown
ENCODING 254
SWIDTH 360 0
DWIDTH 14 0
BBX 14 40 0 -10
BITMAP
0000
0000
0000
0000
0000
0000
0000
0300
0300
0300
0300
0300
0300
0300
0300
0300
0300
0300
0300
0300
0300
0300
3330
3330
1B60
1B60
0FC0
0FC0
0780
0780
0300
0300
0000
0000
0000
0000
0000
0000
0000
0000
ENDCHAR
ENDFONT
